<svg width="175" height="138" viewBox="0 0 175 138" fill="none" xmlns="http://www.w3.org/2000/svg">
<path d="M147.617 26.4648H16.8008V110.77H147.617V26.4648Z" fill="#A9AFC4"/>
<path d="M130.856 5.39118L125.47 10.7773L127.127 12.4346L132.513 7.04846L130.856 5.39118Z" fill="#5E6175"/>
<path d="M121.191 0H118.848V7.61719H121.191V0Z" fill="#5E6175"/>
<path d="M138.113 16.2539H130.496V18.5977H138.113V16.2539Z" fill="#5E6175"/>
<path d="M148.793 111.941H15.625V25.293H148.793V111.941ZM17.9688 109.598H146.449V27.6367H17.9688V109.598Z" fill="#5E6175"/>
<path d="M107.711 25.3906H100V15.1367C100 13.1683 99.2183 11.2805 97.8264 9.88866C96.4346 8.49679 94.5468 7.71484 92.5784 7.71484H69.3557C67.3873 7.71484 65.4995 8.49679 64.1077 9.88866C62.7158 11.2805 61.9338 13.1683 61.9338 15.1367V25.3906H54.219V15.1367C54.219 11.1222 55.8137 7.27213 58.6524 4.43344C61.4911 1.59476 65.3412 0 69.3557 0H92.5784C96.5929 0 100.443 1.59476 103.282 4.43344C106.12 7.27213 107.715 11.1222 107.715 15.1367L107.711 25.3906Z" fill="#5E6175"/>
<path d="M55.3909 26.6953H40.7424V17.2852H55.3909V26.6953ZM43.0862 24.3516H53.0471V19.6289H43.0862V24.3516Z" fill="#5E6175"/>
<path d="M121.192 26.6953H106.539V17.2852H121.192V26.6953ZM108.883 24.3516H118.848V19.6289H108.883V24.3516Z" fill="#5E6175"/>
<path d="M147.617 79.168V110.77H116.016C116.026 102.391 119.359 94.3595 125.283 88.4353C131.207 82.5111 139.239 79.1783 147.617 79.168Z" fill="url(#paint0_linear_1940_3028)" style="mix-blend-mode:multiply"/>
<path d="M147.621 136.195C161.663 136.195 173.047 124.812 173.047 110.77C173.047 96.7273 161.663 85.3438 147.621 85.3438C133.579 85.3438 122.195 96.7273 122.195 110.77C122.195 124.812 133.579 136.195 147.621 136.195Z" fill="#F5F5F5"/>
<path d="M147.621 137.367C142.361 137.367 137.218 135.807 132.844 132.885C128.47 129.962 125.061 125.808 123.048 120.948C121.035 116.088 120.508 110.74 121.535 105.581C122.561 100.421 125.094 95.6819 128.814 91.9622C132.534 88.2424 137.273 85.7092 142.432 84.683C147.592 83.6567 152.94 84.1834 157.8 86.1965C162.66 88.2096 166.814 91.6187 169.736 95.9927C172.659 100.367 174.219 105.509 174.219 110.77C174.212 117.821 171.407 124.582 166.421 129.569C161.434 134.555 154.673 137.36 147.621 137.367ZM147.621 86.5156C142.824 86.5156 138.135 87.9381 134.146 90.6032C130.158 93.2682 127.049 97.0562 125.214 101.488C123.378 105.92 122.898 110.796 123.833 115.501C124.769 120.206 127.079 124.528 130.471 127.92C133.863 131.312 138.185 133.622 142.89 134.557C147.594 135.493 152.471 135.013 156.903 133.177C161.335 131.342 165.123 128.233 167.788 124.244C170.453 120.256 171.875 115.567 171.875 110.77C171.868 104.339 169.31 98.1744 164.763 93.6274C160.216 89.0805 154.052 86.5229 147.621 86.5156Z" fill="#5E6175"/>
<path d="M135.109 101.168L133.028 101.169H130.109V121.21H166.109V101.169H137.243L135.109 101.168Z" fill="#4D8EFF"/>
<path d="M159.068 105.807H137.147V108.863H159.068V105.807Z" fill="#F4F4F4"/>
<path d="M149.268 113.26H137.147V116.316H149.268V113.26Z" fill="#F4F4F4"/>
<path d="M3.73438 113.605C2.99579 113.605 2.27378 113.386 1.65967 112.976C1.04555 112.566 0.56691 111.983 0.284264 111.3C0.00161771 110.618 -0.0723349 109.867 0.0717568 109.143C0.215848 108.418 0.571513 107.753 1.09378 107.23C1.61604 106.708 2.28144 106.353 3.00584 106.208C3.73023 106.064 4.48109 106.138 5.16346 106.421C5.84583 106.704 6.42906 107.182 6.8394 107.796C7.24973 108.411 7.46875 109.133 7.46875 109.871C7.46772 110.861 7.07394 111.81 6.37384 112.511C5.67373 113.211 4.72448 113.604 3.73438 113.605ZM3.73438 108.48C3.45934 108.48 3.19047 108.562 2.96179 108.715C2.7331 108.868 2.55486 109.085 2.44961 109.339C2.34435 109.593 2.31681 109.873 2.37047 110.142C2.42413 110.412 2.55657 110.66 2.75106 110.854C2.94554 111.049 3.19332 111.181 3.46308 111.235C3.73283 111.289 4.01244 111.261 4.26655 111.156C4.52065 111.051 4.73783 110.872 4.89064 110.644C5.04344 110.415 5.125 110.146 5.125 109.871C5.12759 109.687 5.09353 109.504 5.02481 109.333C4.95608 109.162 4.85406 109.006 4.72467 108.875C4.59528 108.744 4.4411 108.64 4.2711 108.569C4.10109 108.498 3.91865 108.461 3.73438 108.461V108.48Z" fill="#5E6175"/>
<path d="M22.5818 130.402C21.566 130.399 20.5739 130.095 19.731 129.528C18.8881 128.961 18.2322 128.157 17.8461 127.218C17.4601 126.278 17.3613 125.245 17.5622 124.25C17.7631 123.254 18.2547 122.34 18.9749 121.624C19.6951 120.907 20.6114 120.421 21.6082 120.225C22.605 120.029 23.6374 120.134 24.5749 120.525C25.5124 120.916 26.3129 121.576 26.8752 122.422C27.4375 123.268 27.7364 124.262 27.7341 125.277C27.7289 126.64 27.1836 127.944 26.2177 128.905C25.2517 129.866 23.9442 130.404 22.5818 130.402ZM22.5818 122.477C22.0304 122.48 21.4922 122.646 21.0352 122.954C20.5781 123.263 20.2226 123.7 20.0133 124.21C19.8041 124.72 19.7506 125.281 19.8594 125.821C19.9683 126.362 20.2348 126.858 20.6252 127.247C21.0157 127.636 21.5126 127.902 22.0535 128.009C22.5943 128.116 23.1548 128.061 23.6644 127.851C24.174 127.64 24.6098 127.283 24.9169 126.825C25.2241 126.367 25.3888 125.829 25.3904 125.277C25.3899 124.91 25.3167 124.546 25.1752 124.206C25.0336 123.867 24.8264 123.559 24.5654 123.299C24.3045 123.04 23.9949 122.835 23.6545 122.696C23.3141 122.557 22.9495 122.486 22.5818 122.488V122.477Z" fill="#5E6175"/>
<path d="M165.625 84.5781H163.281V82.2344H165.625V84.5781ZM165.625 78.3281H163.281V75.9844H165.625V78.3281ZM165.625 72.0781H163.281V69.7344H165.625V72.0781ZM165.625 65.8281H163.281V63.4844H165.625V65.8281ZM165.625 59.5781H163.281V57.2344H165.625V59.5781ZM165.625 53.3281H163.281V50.9844H165.625V53.3281ZM165.625 47.0781H163.281C163.281 45.125 163.281 45.0703 163.281 44.7773L165.625 44.6875C165.625 45.0859 165.625 45.2461 165.625 47.0781ZM162.574 41.3398C162.327 40.679 162.017 40.0433 161.649 39.4414L163.645 38.2148C164.094 38.9444 164.471 39.7164 164.77 40.5195L162.574 41.3398ZM159.375 36.7617C158.836 36.3047 158.254 35.9005 157.637 35.5547L158.785 33.5117C159.531 33.9327 160.236 34.4218 160.891 34.9727L159.375 36.7617Z" fill="#A9AFC4"/>
<path d="M149.851 34.1445H147.507V31.8008H149.851V34.1445ZM143.601 34.1445H141.257V31.8008H143.601V34.1445Z" fill="#A9AFC4"/>
<defs>
<linearGradient id="paint0_linear_1940_3028" x1="116.02" y1="94.9687" x2="147.617" y2="94.9687" gradientUnits="userSpaceOnUse">
<stop stop-color="#CACFDD"/>
<stop offset="1" stop-color="#EEF0F1"/>
</linearGradient>
</defs>
</svg>
